# xmcd CD database file generated by OrangeCD 5.1
#
# Track frame offsets:
#	150
#	36385
#	52693
#	67851
#	78850
#	99624
#	113158
#	136621
#	147906
#	163008
#	183010
#	209485
#	224775
#	240797
#	266939
#	288093
#	306316
#	325546
#
# Disc length: 4693 seconds
#
# Revision: 2
# Processed by: cddbd v1.4PL0 Copyright (c) Steve Scherf et al.
# Submitted via: OrangeCD 5.1
#
DISCID=f9125312
DTITLE=Hopkins, Lightnin' - Complete Prestige/Bluesville Recordings - Disc 4
DYEAR=1900
DGENRE=Blues
TTITLE0=Blues Is A Feeling
TTITLE1=Me And Ray Charles
TTITLE2=In The Evening
TTITLE3=Ain't It Crazy
TTITLE4=Last Night I Lost The Best Friend I Ever Had
TTITLE5=Everything
TTITLE6=I Work Down On The Chain Gang
TTITLE7=Meet Me In The Bottom
TTITLE8=Business You're Doin'
TTITLE9=Wake Up Old Lady
TTITLE10=Stranger Here
TTITLE11=Don't Embarrass Me, Babe
TTITLE12=Little Sister's Boogie
TTITLE13=Goin' Away
TTITLE14=You Better Stop Her
TTITLE15=I'm Wit' It
TTITLE16=Let's Go Sit On The Lawn
TTITLE17=I Woke Up This Morning
EXTD=
EXTT0=
EXTT1=
EXTT2=
EXTT3=
EXTT4=
EXTT5=
EXTT6=
EXTT7=
EXTT8=
EXTT9=
EXTT10=
EXTT11=
EXTT12=
EXTT13=
EXTT14=
EXTT15=
EXTT16=
EXTT17=
PLAYORDER=
